PathFileType	4	(X/Y/Z)	OpenSim_Sub02_EMGStiffKnee_Accel.trc
DataRate	CameraRate	NumFrames	NumMarkers	Units	OrigDataRate	OrigDataStartFrame	OrigNumFrames
100	100	34	8	m	100	1973	7890
Frame#	Time	torso_imu_offset_imu	pelvis_imu_offset_imu	tibia_r_imu_offset_imu	femur_r_imu_offset_imu	tibia_l_imu_offset_imu	femur_l_imu_offset_imu	toes_r_imu_offset_imu	toes_l_imu_offset_imu
				X1	Y1	Z1	X2	Y2	Z2	X3	Y3	Z3	X4	Y4	Z4	X5	Y5	Z5	X6	Y6	Z6	X7	Y7	Z7	X8		Y8	Z8	

1973	19.72000000	11.12339839	-1.82385903	5.89776902	10.92274343	-1.21439534	6.15299522	9.25577680	10.59247259	2.89510130	8.47942440	-0.49637145	0.48339680	9.87970343	-3.87823052	2.36640025	10.59066872	-2.20801332	1.88389405	6.60229244	-1.13896534	8.50533594	4.57851363	-0.82883615	11.22656997
1974	19.73000000	10.56351382	-2.06792524	5.71871242	10.33403186	0.25547767	6.25140484	8.30551973	2.76608802	2.39770398	10.81471336	0.05118101	0.12180782	9.69884401	-5.79935617	0.96446373	9.82302573	-3.32797556	1.37155816	4.73408480	0.51654939	9.59173892	9.24765251	-2.81504602	10.70898800
1975	19.74000000	10.12259815	-2.07651093	5.50721824	9.42471855	1.35507330	6.27026609	9.02655662	0.93460209	1.85261426	12.47606793	-0.04485615	-0.75776368	9.07140381	-6.13426221	1.20510487	9.00717560	-4.28193136	0.98484959	5.47776586	0.46658227	9.17724087	15.68485825	2.33657196	14.14907765
1976	19.75000000	9.74858674	-2.14159623	5.29372672	8.45812668	2.01910593	6.09845689	10.46778433	4.15550528	0.09005732	12.54186863	-0.54678180	-1.59350281	8.28109382	-6.65218654	3.77365798	8.91848477	-4.89119660	0.74438318	4.91307020	1.52480576	9.25471211	18.22087256	1.00938283	13.22605105
1977	19.76000000	9.35261448	-2.36545578	5.02555304	7.72818677	2.08506143	5.86698728	12.67027734	8.22373824	0.45888850	11.56630684	-0.64455763	-1.27752680	7.70182819	-8.62350261	5.64554917	9.66374142	-4.89426665	0.62394933	5.25786984	-0.09753708	9.12740227	17.22910240	-0.89525696	13.65976552
1978	19.77000000	9.01859421	-2.51119518	4.81842932	7.61157631	1.81466477	5.77202532	12.65299646	8.68155408	2.25172138	10.34462646	-0.68959319	-0.75931813	7.32476752	-9.94658874	4.82065201	10.71303063	-4.36374066	0.68669089	4.99285643	-0.67730376	9.08018739	8.04214272	1.89968255	19.60007259
1979	19.78000000	8.91754066	-2.37910441	4.72610675	7.86355753	1.52667746	5.73735750	10.48949897	4.13253316	2.92695765	9.46141584	-1.58560406	-0.78563797	7.50651928	-9.13896475	2.58798595	11.45679454	-4.07086087	1.08677253	4.40568600	1.09805731	9.48401694	-0.02684440	4.86263741	19.81600389
1980	19.79000000	9.05290738	-1.97843203	4.65486279	8.30843511	1.35701412	5.50666931	9.93356421	0.76299894	1.74142237	9.30796359	-2.67871274	-1.23820667	6.97677860	-6.99282363	1.60420955	11.54137763	-4.28979804	1.44142349	4.91325434	1.35697715	9.14412405	0.60434392	7.36857198	18.17723633
1981	19.80000000	9.38750140	-1.60846366	4.61713056	8.68332671	1.25197134	5.26148150	9.47266345	1.13701356	1.37707152	9.55131124	-2.93412994	-1.46748574	5.11781131	-4.89237617	1.74205626	11.16893570	-4.63544858	1.35706028	5.01493493	1.00356168	8.99000597	1.67973183	8.12882294	17.45929345
1982	19.81000000	9.67012692	-1.35178952	4.65490816	8.91684692	1.15061351	5.05883173	8.77292281	1.81814900	1.67323774	9.71078853	-2.53530014	-0.69236684	2.53300819	-3.40636991	2.71965981	10.43143209	-4.61874403	0.81344098	4.71404649	0.17643566	9.05789172	-3.74379784	6.97539428	13.22024598
1983	19.82000000	9.67892005	-1.20224706	4.67191194	9.02707506	0.92693171	4.89088905	9.11076926	2.30354485	1.55181554	9.51357098	-1.72776870	0.63273478	-0.18318213	-2.65875779	3.92887217	9.52917916	-4.20625720	0.32050159	5.27051141	0.19047667	8.76008413	-4.09315969	4.49502662	11.60554066
1984	19.83000000	9.41145106	-1.08554911	4.80501060	8.84204444	0.57938780	4.74719189	10.21290274	2.25234286	1.35252571	8.94886160	-0.83042358	1.40864084	-1.75771421	-2.03080879	4.49054564	8.73033242	-3.75489507	0.25048428	4.85885914	0.65486425	8.94673080	-3.08188951	3.43111875	11.86085114
1985	19.84000000	9.05968604	-1.03404833	5.03306643	8.59136911	0.32221816	4.63417984	10.91612583	2.16309765	1.40295990	8.56126156	-0.24689579	1.49522847	-1.54441925	-1.14645473	4.78181760	8.22152712	-3.40298202	0.17289407	5.06908797	0.50797879	8.80838698	-1.88373139	3.12319593	12.77952501
1986	19.85000000	8.79555205	-1.13350729	5.08943461	8.17841194	0.16729166	4.57256658	10.74357331	2.00363178	1.37477405	8.63630836	-0.18980109	1.17687454	-0.41200066	-0.88737652	4.74817463	8.01549549	-3.31309261	0.04196734	5.44117213	0.22688472	8.53502470	-0.53270889	2.54908486	13.71221403
1987	19.86000000	8.53708625	-1.26834637	5.12305975	7.68438199	0.12709168	4.51298145	10.05404747	1.87916914	1.61299606	8.90395710	-0.64474296	0.84089165	1.11333417	-1.45903405	4.81061413	7.79420360	-3.49885509	0.07376292	4.94204557	0.10272413	8.65494971	0.44586772	1.87703517	14.32829041
1988	19.87000000	8.23074580	-1.35957445	5.12301270	7.33427188	0.22056125	4.47828536	9.50327939	1.84636813	1.36953798	8.97903590	-1.30656696	0.73351688	2.83746940	-2.19582520	5.47630645	7.68497968	-3.90479888	0.23614167	4.99055291	0.18223331	8.59670793	1.28653392	0.93309063	14.74290492
1989	19.88000000	7.91387919	-1.46750819	4.96309561	7.11797069	0.40402379	4.48092794	9.19423197	1.68803122	1.19868988	8.79078689	-1.78526244	0.89405217	4.52609989	-2.61283185	5.85765076	7.79858911	-4.23692416	0.45455576	5.43912806	-0.04511693	8.23475925	2.28899516	-0.07420460	15.01321086
1990	19.89000000	7.63265033	-1.58187966	4.83962823	7.05970665	0.64010627	4.48295180	9.11778719	1.31034535	1.18473679	8.53480650	-1.93087576	0.90732774	6.01282020	-2.48942549	5.09457461	7.99481881	-4.32597784	0.53482447	5.42890774	-0.17843041	8.19679503	3.63169873	-0.50420545	15.15418348
1991	19.90000000	7.47273936	-1.70350776	4.80644486	7.10698547	0.72142409	4.53460402	9.08975725	1.04255197	1.03340262	8.33450224	-1.74691719	0.62266867	7.28614008	-2.00437324	3.69797266	8.20136340	-4.06484537	0.32671089	5.60811824	0.13981504	8.13202279	4.01958683	-0.02829054	14.63875811
1992	19.91000000	7.44480381	-1.74748368	4.84675998	7.05423426	0.61657642	4.70302717	9.07864489	0.83206414	1.18856874	8.42336534	-1.43166472	0.11436353	8.16367850	-1.51852954	2.59773237	8.40602703	-3.57247555	-0.12001311	5.55237704	0.25956865	8.11414774	3.67079332	0.80168824	13.72055615
1993	19.92000000	7.47640669	-1.59214243	4.85215755	7.06836795	0.58978751	4.63985322	9.27339566	0.26359607	1.19476763	8.68186451	-1.16429022	-0.69048640	8.74340256	-1.44363509	1.84617518	8.79036131	-3.21628374	-0.51518091	5.04397858	0.17229338	8.45018953	3.90593543	1.52762375	13.27945270
1994	19.93000000	7.53540203	-1.32163725	4.81904570	7.22047991	0.65357442	4.51844187	9.62624788	-0.06889172	1.36738053	8.84105709	-0.91938954	-1.01577821	9.00844407	-1.78223446	1.44164598	8.98258697	-2.93856342	-0.82981692	5.54632518	0.15745572	8.18403589	4.31760092	1.78520169	13.07724180
1995	19.94000000	7.63181310	-1.17246097	4.91091452	7.29135707	0.87103329	4.40501255	9.77155188	0.53896413	0.97015818	8.89812099	-0.79028952	-0.58934571	9.17318005	-2.08634435	1.82513432	8.70027387	-2.36968965	-0.88987828	5.73092570	-0.01213798	8.09315530	4.87238434	2.10029067	12.99879343
1996	19.95000000	7.87920978	-1.17180251	4.90194537	7.52593641	1.25362608	4.29498804	9.71480135	1.01136279	0.99509892	9.11706891	-0.82442687	-0.29399487	9.61368412	-1.90243413	2.70195993	8.50251413	-1.50471917	-0.32369418	5.36450809	-0.07134148	8.37296378	5.72097886	2.56230887	12.92488459
1997	19.96000000	8.20788269	-1.23351114	4.95574948	7.88504550	1.46764599	4.18100757	9.77321073	1.48001245	1.26545737	9.39864348	-1.04679279	-0.41102272	9.84432949	-0.92759072	3.88556966	8.80642972	-0.69004112	0.48308154	5.59622748	-0.11968522	8.31890768	6.31479099	3.11579906	12.84467303
1998	19.97000000	8.53153409	-1.26184452	5.22311068	8.21852015	1.56383636	4.08239076	9.81370676	2.03061503	1.21300202	9.30271871	-1.74523706	-0.53185313	9.50900626	0.03043728	4.99005237	9.54925450	-0.25461056	1.38502200	5.85840173	0.13236434	8.14363743	7.08730658	3.66467516	13.22706879
1999	19.98000000	8.86184408	-1.17799427	5.56409138	8.48691930	1.64739972	3.94338543	9.76836598	1.88376075	1.28187291	9.04104134	-2.53801325	-0.49538085	9.18754452	0.23224753	5.11942968	10.20131830	-0.23546302	1.92134937	5.98191869	0.36289065	8.04480429	7.91584382	4.20243360	13.72272809
2000	19.99000000	9.02847415	-0.97373355	5.90190478	8.60492010	1.67881847	3.91474807	9.72603776	0.84273259	1.18757065	8.76498398	-2.84416229	0.01668105	9.57518354	0.02433312	4.57807747	10.27442162	-0.45161525	1.75854654	6.15598453	0.53060541	7.95116332	7.99168085	4.45947559	13.72234974
2001	20	9.05111117	-0.84216370	6.21474523	8.50201034	1.75182915	3.89115410	9.69757649	-0.36629844	0.75979131	8.64656703	-2.15913604	0.95514895	10.67665633	-0.53515342	3.63520921	9.87344361	-0.32079141	1.35432437	5.94959879	0.18457514	8.00128175	7.74637399	3.81215882	13.11018930
2002	20.01000000	8.94881785	-0.87422171	6.18582147	8.39511845	1.83744079	3.83323593	9.77110608	-1.07262108	0.38282530	8.81063691	-1.01239510	1.46719223	11.96035398	-1.32914429	2.15993464	9.41095770	0.17874795	0.78780056	5.50772343	-0.18480815	8.38275012	7.77425020	1.49622503	12.41960016
2003	20.02000000	8.94686388	-0.92145580	6.17197634	8.39109452	2.01374264	3.85636304	9.88352933	-0.82528642	0.04194857	9.15819316	-0.48139380	1.10294077	12.69140286	-2.55016428	1.62916939	8.92462631	0.62281224	-0.36280970	5.70775796	-0.37417569	8.32775116	7.94030713	-1.25167347	12.46504560
2004	20.03000000	9.03650972	-0.91303845	6.30300286	8.41453168	2.22930334	3.82786450	10.10138854	0.33176565	-0.06932960	9.60940531	-0.76126328	0.03424698	12.84522091	-4.59551206	1.71379555	8.61722209	1.20870861	-1.32015762	5.85286540	-0.33935628	8.23677761	10.13611349	-1.00815579	13.57964289
2005	20.04000000	9.02272948	-0.90697615	6.12467915	8.39821203	2.22928230	3.66824882	10.17923528	1.82968564	0.18839348	9.82031661	-1.44464507	-0.67522774	12.41144683	-5.75003376	0.79321131	8.56646255	1.68410566	-1.21649392	5.74083221	-0.35653029	8.34298707	13.72501163	0.00616334	14.09216301
2006	20.05000000	8.97140363	-1.00798190	5.91045126	8.55408566	2.11933188	3.44331650	10.04655314	2.89064044	0.69951822	9.79545218	-1.74202541	-0.52348163	11.35801972	-4.64024681	1.42876708	8.34942837	1.64778248	-0.98562098	6.17218016	-0.39446728	8.09076286	14.15662310	-0.44132282	12.75048577
